<?xml version="1.0" encoding="utf-8"?>
<!-- Generated by IcoMoon.io -->
<!DOCTYPE svg PUBLIC "-//W3C//DTD SVG 1.1//EN" "http://www.w3.org/Graphics/SVG/1.1/DTD/svg11.dtd">
<svg version="1.1" xmlns="http://www.w3.org/2000/svg" xmlns:xlink="http://www.w3.org/1999/xlink" width="56" height="56" viewBox="0 0 56 56">
<path fill="#444444" d="M23.344 47.531q2.313 1 4.375 1 11.75 0 11.75-10.469 0-3.563-1.281-5.625-0.844-1.375-1.922-2.313t-2.109-1.453-2.516-0.781-2.625-0.328-2.953-0.063q-2.281 0-3.156 0.312 0 1.656-0.016 4.969t-0.016 4.938q0 0.25-0.031 2.109t-0.016 3.016 0.141 2.609 0.375 2.078zM22.906 24.219q1.313 0.219 3.406 0.219 2.562 0 4.469-0.406t3.437-1.391 2.328-2.797 0.797-4.438q0-2.188-0.906-3.828t-2.469-2.562-3.375-1.359-3.875-0.438q-1.562 0-4.063 0.406 0 1.562 0.125 4.719t0.125 4.75q0 0.844-0.016 2.5t-0.016 2.469q0 1.438 0.031 2.156zM6 52l0.063-2.937q0.469-0.125 2.656-0.5t3.312-0.844q0.219-0.375 0.391-0.844t0.266-1.047 0.172-1.016 0.094-1.172 0.016-1.063v-2.047q0-30.688-0.687-32.031-0.125-0.25-0.687-0.453t-1.391-0.344-1.547-0.219-1.516-0.141-0.953-0.094l-0.125-2.594q3.063-0.063 10.625-0.359t11.656-0.297q0.719 0 2.141 0.016t2.109 0.016q2.188 0 4.266 0.406t4.016 1.313 3.375 2.219 2.313 3.266 0.875 4.297q0 1.625-0.516 2.984t-1.219 2.25-2.016 1.797-2.281 1.406-2.625 1.25q4.813 1.094 8.016 4.187t3.203 7.75q0 3.125-1.094 5.609t-2.922 4.078-4.312 2.672-5.109 1.516-5.5 0.438q-1.375 0-4.125-0.094t-4.125-0.094q-3.312 0-9.594 0.344t-7.219 0.375z"></path>
</svg>
