<?xml version="1.0" encoding="utf-8"?>
<!-- Generated by IcoMoon.io -->
<!DOCTYPE svg PUBLIC "-//W3C//DTD SVG 1.1//EN" "http://www.w3.org/Graphics/SVG/1.1/DTD/svg11.dtd">
<svg version="1.1" xmlns="http://www.w3.org/2000/svg" xmlns:xlink="http://www.w3.org/1999/xlink" width="56" height="56" viewBox="0 0 56 56">
<path fill="#444444" d="M18.482 39.553l-1.347 1.347q-0.269 0.269-0.62 0.269t-0.62-0.269l-12.556-12.556q-0.269-0.269-0.269-0.62t0.269-0.62l12.556-12.556q0.269-0.269 0.62-0.269t0.62 0.269l1.347 1.347q0.269 0.269 0.269 0.62t-0.269 0.62l-10.589 10.589 10.589 10.589q0.269 0.269 0.269 0.62t-0.269 0.62zM34.406 10.803l-10.051 34.786q-0.108 0.35-0.418 0.525t-0.633 0.067l-1.671-0.458q-0.35-0.108-0.525-0.418t-0.067-0.66l10.051-34.786q0.108-0.35 0.418-0.525t0.633-0.067l1.671 0.458q0.35 0.108 0.525 0.418t0.067 0.66zM52.109 28.344l-12.556 12.556q-0.269 0.269-0.62 0.269t-0.62-0.269l-1.347-1.347q-0.269-0.269-0.269-0.62t0.269-0.62l10.589-10.589-10.589-10.589q-0.269-0.269-0.269-0.62t0.269-0.62l1.347-1.347q0.269-0.269 0.62-0.269t0.62 0.269l12.556 12.556q0.269 0.269 0.269 0.62t-0.269 0.62z"></path>
</svg>
