<?xml version="1.0" encoding="utf-8"?>
<!-- Generated by IcoMoon.io -->
<!DOCTYPE svg PUBLIC "-//W3C//DTD SVG 1.1//EN" "http://www.w3.org/Graphics/SVG/1.1/DTD/svg11.dtd">
<svg version="1.1" xmlns="http://www.w3.org/2000/svg" xmlns:xlink="http://www.w3.org/1999/xlink" width="56" height="56" viewBox="0 0 56 56">
<path fill="#444444" d="M39.077 13.729c-0.242-0.436-1.039-1.295-1.529-1.457-0.654-0.101-0.262 0.483-0.262 0.733-0.169 0.127-0.431 0.268-0.558 0.438-0.076 0.066 0.186 0.668 0.693 0.474s0.215 0.197 0.565 0.97 1.051 0.788 1.366 0.554c0.4-0.297-0.055-1.314-0.275-1.711z"></path>
<path fill="#444444" d="M41.103 18.659c-0 0.001-0 0.001-0.001 0.002s0 0.001 0.001-0.002z"></path>
<path fill="#444444" d="M47.534 21.558c0.044 0-0.197-0.044 0 0v0z"></path>
<path fill="#444444" d="M28 3.5c-13.53 0-24.5 10.97-24.5 24.5s10.97 24.5 24.5 24.5c13.53 0 24.5-10.97 24.5-24.5s-10.97-24.5-24.5-24.5zM18.966 46.968c-0.603-0.343-1.025-0.827-1.199-1.742-0.432-2.276-0.033-3.507 1.965-4.839 0.941-0.627 1.096-1.386 1.848-2.138 0.184-0.234 0.679-1.135 1.006-1.181 0.398-0.085 1.499-0.276 1.717-0.711 0.415-0.563 1.326-2.997 1.728-3.238 0.656-0.429 1.577-1.746 0.908-2.527-0.768-0.945-1.837-0.959-2.833-1.455-0.877-0.438-1.266-2.437-1.936-3.128-1.303-1.327-3.281-2.1-4.922-2.92-0.888-0.355-0.803-0.465-1.498 0.23-0.893 0.893-2.198-0.226-2.33-1.148-0.010-0.306-0.361-1.992-0.153-2.122 1.964-1.228-0.911-0.945-1.148-1.509-0.586-1.64 1.423-2.938 2.778-3.073 1.519-0.19 1.836 2.395 2.417 2.177 0.28-0.14 0.281-1.356 0.317-1.619 0.139-0.878 0.392-1.014 1.247-1.332 0.995-0.37 1.757-0.833 2.811-1.009 1.204-0.349 2.222-0.168 3.15-0.941 0.425-0.319 0.733 0.173 1.137 0.263 0.875 0.175 1.061-1.214 1.061-1.739-0.004-0.51 0.138-0.944-0.514-1.487-0.854-0.664-2.081-0.095-2.767 0.591-0.828 0.769-1.789 0.716-1.509-0.612 0.069-0.485 1.117-1.049 1.531-1.313 0.405-0.243 0.646 0.276 1.138 0.153 0.72-0.16 0.988 0.518 1.838 0.525 0.354-0.080 1.618-0.753 0.942-2.118 0.102-0.001 0.203-0.003 0.305-0.003 0.203 0 0.405 0.004 0.608 0.009 0.307 0.971-0.652 1.798-0.17 3.020 0.961 2.349 1.749 0.33 2.702-0.766 0.312-0.312 0.507-0.242 1.017-0.339 0.317-0.053 0.772-1.014 0.918-1.311 2.194 0.542 4.279 1.436 6.187 2.653-0.815 0.087-1.022-0.153-1.010 0.807 0.005 0.363 0.032 1.457 0.577 1.548 0.905 0.107 0.742 0.747 1.592 0.859 0.814 0.107 0.308 0.826 0.64 1.537 0.371 1.119-2.166 1.455-2.658 1.619-1.492 0.498 0.693 2.67 1.662 2.439 0.308-0.077 1.336-0.208 1.407-0.554-0.001-0.035-0.201-1.204-0.095-1.338 0.168-0.212 0.56-0.322 1.179 0.028 1.463 0.828 2.203 2.811 3.926 3.204 0.235 0.053 0.641-0.016 0.929 0.222 0.244 0.33 0.866 0.921 0.124 0.921-0.986-0.219-1.507 0.094-2.319-0.533-0.846-0.654-1.372-1.191-2.488-1.211-0.961-0.017-1.824-0.418-2.815-0.257-0.552 0.090-1.098 0.307-1.631 0.47-0.505 0.168-0.603 1.068-1.116 1.17-2.129 0.501-1.669 2.534-2.053 4.147-0.148 0.619-0.659 2.297-0.101 2.853 0.998 0.968 2.164 2.301 3.629 2.512 0.788 0.113 2.511-0.501 3.043 0.299 0.226 0.449 0.815-0.331 0.973 0.066 0.401 1.202-0.466 1.989-0.474 3.123-0.012 1.663 1.004 2.25-0.357 3.735-1.492 1.488-0.474 3.367-1.302 5.141-0.442 0.912-0.526 2.176-1.189 2.601-1.457 0.933-3.030 1.684-4.672 2.23-2.912 0.967-6.033 1.277-9.080 0.925-1.599-0.185-3.176-0.553-4.69-1.101-0.412-0.149-0.796-0.274-1.145-0.405-0.263-0.112-0.523-0.229-0.782-0.353zM14.405 44.005c-0.051-0.043-0.102-0.087-0.153-0.131-0.377-0.327-0.744-0.669-1.1-1.025-0.371-0.371-0.726-0.753-1.065-1.145-0.004-0.004-0.008-0.009-0.011-0.013-0.070-0.081-0.137-0.163-0.206-0.244-5.653-6.832-6.482-16.836-1.741-24.482 0.665 0.665-0.449 1.971 0.82 2.844 0.56 0.394 1.096 0.236 0.984 0.963-0.109 0.705 0.586 0.693 0.689 1.313 0.311 1.359 2.101 2.039 1.083 3.566-0.997 1.381-1.859 2.923-1.105 4.681 0.247 0.641 0.866 1.297 1.337 1.777 0.855 0.871 0.807 0.349 0.807 1.45-0.017 0.478 0.575 0.973 0.514 1.28-0.109 0.876-0.318 1.742-0.427 2.614-0.196 3.132-0.014 6.197 2.33 8.542-0.872-0.526-1.71-1.121-2.512-1.782-0.082-0.068-0.163-0.137-0.244-0.206z"></path>
</svg>
