<?xml version="1.0" encoding="utf-8"?>
<!-- Generated by IcoMoon.io -->
<!DOCTYPE svg PUBLIC "-//W3C//DTD SVG 1.1//EN" "http://www.w3.org/Graphics/SVG/1.1/DTD/svg11.dtd">
<svg version="1.1" xmlns="http://www.w3.org/2000/svg" xmlns:xlink="http://www.w3.org/1999/xlink" width="56" height="56" viewBox="0 0 56 56">
<path fill="#444444" d="M48.115 18.257c0.874 1.004 2.459 2.498 3.505 3.348 0.88 0.715 1.81 1.264 1.653 2.557-0.428 3.534-4.904 1.943-6.968 1.476-0.723 5.182-9.796 19.944-13.555 21.606 0.186 0.599 0.661 3.632 0.065 4.801 0 0-0.204-2.952-1.273-2.787-0.942 0.461-0.726 1.476-2.031 2.123 0 0-0.183-1.089 0.094-1.81-2.2-0.068-1.819 1.219-2.722 2.991-1.397-2.737-1.134-4.142-1.467-5.149-2.51-1.367-11.293-9.891-16.017-21.775-1.825 0.7-4.597 1.633-6.023-0.334-0.357-0.493-0.502-1.131-0.375-1.73 0.224-1.057 1.184-1.633 1.969-2.265 1.084-0.874 2.524-2.2 3.292-3.348 0.788-1.184 6.451-14.172 6.451-14.172 0.472 0.251 4.021 6.513 4.724 7.677 3.13-1.143 14.836-0.998 17.051-0.478 0.534-0.629 3.912-7.493 3.912-7.493s6.605 13.487 7.715 14.763zM18.83 26.376c2.71-0.112 3.322-5.701 0.074-5.849s-2.787 5.961-0.074 5.849zM36.97 26.45c2.805 0 2.988-6.271-0.112-5.967-3.1 0.301-2.693 5.967 0.112 5.967zM25.933 38.924c0.534 1.901 3.413 5.258 3.413 5.258s2.69-3.162 3.082-5.258c0 0-6.496 0-6.496 0z"></path>
</svg>
