<?xml version="1.0" encoding="utf-8"?>
<!-- Generated by IcoMoon.io -->
<!DOCTYPE svg PUBLIC "-//W3C//DTD SVG 1.1//EN" "http://www.w3.org/Graphics/SVG/1.1/DTD/svg11.dtd">
<svg version="1.1" xmlns="http://www.w3.org/2000/svg" xmlns:xlink="http://www.w3.org/1999/xlink" width="56" height="56" viewBox="0 0 56 56">
<path fill="#444444" d="M40.25 24.5c2.898 0 5.25-2.352 5.25-5.25s-2.352-5.25-5.25-5.25c-2.898 0-5.25 2.352-5.25 5.25s2.352 5.25 5.25 5.25z"></path>
<path fill="#444444" d="M49.438 7h-42.875c-1.706 0-3.063 1.389-3.063 3.095v35.809c0 1.706 1.356 3.095 3.063 3.095h42.875c1.706 0 3.063-1.389 3.063-3.095v-35.809c0-1.706-1.356-3.095-3.063-3.095zM38.161 28.623c-0.328-0.383-0.831-0.678-1.4-0.678-0.558 0-0.952 0.262-1.4 0.623l-2.045 1.728c-0.427 0.306-0.766 0.514-1.258 0.514-0.47 0-0.897-0.175-1.203-0.448-0.109-0.098-0.306-0.284-0.47-0.448l-5.884-6.366c-0.438-0.503-1.094-0.82-1.827-0.82s-1.411 0.361-1.838 0.853l-13.836 16.691v-28.492c0.109-0.744 0.689-1.28 1.433-1.28h39.123c0.755 0 1.367 0.558 1.411 1.313l0.033 28.481-10.839-11.67z"></path>
</svg>
