<?xml version="1.0" encoding="utf-8"?>
<!-- Generated by IcoMoon.io -->
<!DOCTYPE svg PUBLIC "-//W3C//DTD SVG 1.1//EN" "http://www.w3.org/Graphics/SVG/1.1/DTD/svg11.dtd">
<svg version="1.1" xmlns="http://www.w3.org/2000/svg" xmlns:xlink="http://www.w3.org/1999/xlink" width="56" height="56" viewBox="0 0 56 56">
<path fill="#444444" d="M12 51.937l0.531-2.656q0.188-0.063 2.547-0.672t3.484-1.172q0.875-1.094 1.281-3.156 0.031-0.219 1.938-9.031t3.563-16.984 1.625-9.266v-0.781q-0.75-0.406-1.703-0.578t-2.172-0.25-1.813-0.172l0.594-3.219q1.031 0.063 3.75 0.203t4.672 0.219 3.766 0.078q1.5 0 3.078-0.078t3.781-0.219 3.078-0.203q-0.156 1.219-0.594 2.781-0.938 0.312-3.172 0.891t-3.391 1.047q-0.25 0.594-0.438 1.328t-0.281 1.25-0.234 1.422-0.203 1.313q-0.844 4.625-2.734 13.109t-2.422 11.109q-0.063 0.281-0.406 1.813t-0.625 2.813-0.5 2.609-0.188 1.797l0.031 0.563q0.531 0.125 5.781 0.969-0.094 1.375-0.5 3.094-0.344 0-1.016 0.047t-1.016 0.047q-0.906 0-2.719-0.312t-2.688-0.312q-4.312-0.063-6.437-0.063-1.594 0-4.469 0.281t-3.781 0.344z"></path>
</svg>
