<?xml version="1.0" encoding="utf-8"?>
<!-- Generated by IcoMoon.io -->
<!DOCTYPE svg PUBLIC "-//W3C//DTD SVG 1.1//EN" "http://www.w3.org/Graphics/SVG/1.1/DTD/svg11.dtd">
<svg version="1.1" xmlns="http://www.w3.org/2000/svg" xmlns:xlink="http://www.w3.org/1999/xlink" width="56" height="56" viewBox="0 0 56 56">
<path fill="#444444" d="M43.75 18.911c0-8.509-7.23-15.411-15.75-15.411s-15.75 6.902-15.75 15.422c0 3.391 1.444 6.453 3.303 9.078h-0.033c1.192 1.641 2.341 3.030 3.445 4.922 2.406 4.134 2.034 8.127 2.045 8.925v0.153h3.5v-14l-3.5-7h1.816l3.434 7v14h3.5v-14l3.434-7h1.805l-3.5 7v14h3.5v-0.153c0-0.973-0.394-4.791 2.012-8.925 1.105-1.892 2.253-3.281 3.445-4.922h-0.011c1.859-2.625 3.303-5.688 3.303-9.089z"></path>
<path fill="#444444" d="M24.5 50.75h7v1.75h-7v-1.75z"></path>
<path fill="#444444" d="M22.75 47.25h10.5v1.75h-10.5v-1.75z"></path>
<path fill="#444444" d="M22.75 43.75h10.5v1.75h-10.5v-1.75z"></path>
</svg>
