<?xml version="1.0" encoding="utf-8"?>
<!-- Generated by IcoMoon.io -->
<!DOCTYPE svg PUBLIC "-//W3C//DTD SVG 1.1//EN" "http://www.w3.org/Graphics/SVG/1.1/DTD/svg11.dtd">
<svg version="1.1" xmlns="http://www.w3.org/2000/svg" xmlns:xlink="http://www.w3.org/1999/xlink" width="56" height="56" viewBox="0 0 56 56">
<path fill="#444444" d="M46.25 39.286q0-1.161-0.812-1.973l-6.036-6.036q-0.812-0.812-1.973-0.812-1.219 0-2.089 0.929 0.087 0.087 0.551 0.537t0.624 0.624 0.435 0.551 0.377 0.74 0.102 0.798q0 1.161-0.812 1.973t-1.973 0.812q-0.435 0-0.798-0.102t-0.74-0.377-0.551-0.435-0.624-0.624-0.537-0.551q-0.958 0.9-0.958 2.118 0 1.161 0.812 1.973l5.978 6.007q0.784 0.784 1.973 0.784 1.161 0 1.973-0.754l4.266-4.237q0.812-0.812 0.812-1.944zM25.851 18.828q0-1.161-0.812-1.973l-5.978-6.007q-0.812-0.812-1.973-0.812-1.132 0-1.973 0.784l-4.266 4.237q-0.812 0.812-0.812 1.944 0 1.161 0.812 1.973l6.036 6.036q0.784 0.784 1.973 0.784 1.219 0 2.089-0.9-0.087-0.087-0.551-0.537t-0.624-0.624-0.435-0.551-0.377-0.74-0.102-0.798q0-1.161 0.812-1.973t1.973-0.812q0.435 0 0.798 0.102t0.74 0.377 0.551 0.435 0.624 0.624 0.537 0.551q0.958-0.9 0.958-2.118zM51.822 39.286q0 3.482-2.467 5.891l-4.266 4.237q-2.408 2.408-5.891 2.408-3.511 0-5.92-2.467l-5.978-6.007q-2.408-2.408-2.408-5.891 0-3.569 2.554-6.065l-2.554-2.554q-2.496 2.554-6.036 2.554-3.482 0-5.92-2.437l-6.036-6.036q-2.437-2.437-2.437-5.92t2.467-5.891l4.266-4.237q2.408-2.408 5.891-2.408 3.511 0 5.92 2.467l5.978 6.007q2.408 2.408 2.408 5.891 0 3.569-2.554 6.065l2.554 2.554q2.496-2.554 6.036-2.554 3.482 0 5.92 2.437l6.036 6.036q2.437 2.437 2.437 5.92z"></path>
</svg>
