<?xml version="1.0" encoding="utf-8"?>
<!-- Generated by IcoMoon.io -->
<!DOCTYPE svg PUBLIC "-//W3C//DTD SVG 1.1//EN" "http://www.w3.org/Graphics/SVG/1.1/DTD/svg11.dtd">
<svg version="1.1" xmlns="http://www.w3.org/2000/svg" xmlns:xlink="http://www.w3.org/1999/xlink" width="56" height="56" viewBox="0 0 56 56">
<path fill="#444444" d="M14.123 47.508q0 2.156-1.468 3.395t-3.651 1.239q-2.856 0-4.635-1.778l1.536-2.371q1.32 1.212 2.856 1.212 0.781 0 1.361-0.391t0.579-1.145q0-1.724-2.829-1.509l-0.701-1.509q0.216-0.269 0.876-1.172t1.145-1.455 0.997-1.037v-0.027q-0.431 0-1.307 0.027t-1.307 0.027v1.428h-2.856v-4.096h8.973v2.371l-2.56 3.099q1.374 0.323 2.183 1.32t0.808 2.371zM14.177 30.614v4.284h-9.754q-0.162-0.97-0.162-1.455 0-1.374 0.633-2.506t1.522-1.832 1.778-1.28 1.522-1.172 0.633-1.212q0-0.674-0.391-1.037t-1.064-0.364q-1.239 0-2.183 1.563l-2.29-1.59q0.647-1.374 1.927-2.142t2.843-0.768q1.967 0 3.314 1.118t1.347 3.031q0 1.347-0.916 2.465t-2.021 1.738-2.034 1.361-0.957 1.415h3.422v-1.617h2.829zM52.143 39.209v5.173q0 0.35-0.256 0.606t-0.606 0.256h-32.765q-0.35 0-0.606-0.256t-0.256-0.606v-5.173q0-0.377 0.243-0.62t0.62-0.243h32.765q0.35 0 0.606 0.256t0.256 0.606zM14.204 14.985v2.668h-9.027v-2.668h2.883q0-1.105 0.014-3.287t0.014-3.26v-0.323h-0.054q-0.216 0.458-1.347 1.455l-1.913-2.048 3.665-3.422h2.856v10.886h2.91zM52.143 25.413v5.173q0 0.35-0.256 0.606t-0.606 0.256h-32.765q-0.35 0-0.606-0.256t-0.256-0.606v-5.173q0-0.377 0.243-0.62t0.62-0.243h32.765q0.35 0 0.606 0.256t0.256 0.606zM52.143 11.617v5.173q0 0.35-0.256 0.606t-0.606 0.256h-32.765q-0.35 0-0.606-0.256t-0.256-0.606v-5.173q0-0.35 0.256-0.606t0.606-0.256h32.765q0.35 0 0.606 0.256t0.256 0.606z"></path>
</svg>
