<?xml version="1.0" encoding="utf-8"?>
<!-- Generated by IcoMoon.io -->
<!DOCTYPE svg PUBLIC "-//W3C//DTD SVG 1.1//EN" "http://www.w3.org/Graphics/SVG/1.1/DTD/svg11.dtd">
<svg version="1.1" xmlns="http://www.w3.org/2000/svg" xmlns:xlink="http://www.w3.org/1999/xlink" width="56" height="56" viewBox="0 0 56 56">
<path fill="#444444" d="M14.204 41.796q0 2.156-1.509 3.665t-3.665 1.509-3.664-1.509-1.509-3.665 1.509-3.665 3.664-1.509 3.665 1.509 1.509 3.665zM14.204 28q0 2.156-1.509 3.665t-3.665 1.509-3.664-1.509-1.509-3.665 1.509-3.665 3.664-1.509 3.665 1.509 1.509 3.665zM52.143 39.209v5.173q0 0.35-0.256 0.606t-0.606 0.256h-32.765q-0.35 0-0.606-0.256t-0.256-0.606v-5.173q0-0.35 0.256-0.606t0.606-0.256h32.765q0.35 0 0.606 0.256t0.256 0.606zM14.204 14.204q0 2.156-1.509 3.665t-3.665 1.509-3.664-1.509-1.509-3.665 1.509-3.665 3.664-1.509 3.665 1.509 1.509 3.665zM52.143 25.413v5.173q0 0.35-0.256 0.606t-0.606 0.256h-32.765q-0.35 0-0.606-0.256t-0.256-0.606v-5.173q0-0.35 0.256-0.606t0.606-0.256h32.765q0.35 0 0.606 0.256t0.256 0.606zM52.143 11.617v5.173q0 0.35-0.256 0.606t-0.606 0.256h-32.765q-0.35 0-0.606-0.256t-0.256-0.606v-5.173q0-0.35 0.256-0.606t0.606-0.256h32.765q0.35 0 0.606 0.256t0.256 0.606z"></path>
</svg>
