<?xml version="1.0" encoding="utf-8"?>
<!-- Generated by IcoMoon.io -->
<!DOCTYPE svg PUBLIC "-//W3C//DTD SVG 1.1//EN" "http://www.w3.org/Graphics/SVG/1.1/DTD/svg11.dtd">
<svg version="1.1" xmlns="http://www.w3.org/2000/svg" xmlns:xlink="http://www.w3.org/1999/xlink" width="56" height="56" viewBox="0 0 56 56">
<path fill="#444444" d="M52.478 24.73c-0.153-0.952-0.339-1.892-0.58-2.822-0.306-1.181-0.7-2.352-1.181-3.478-0.973-2.319-2.308-4.484-3.927-6.409-1.75-2.067-3.861-3.85-6.202-5.217-2.308-1.356-4.823-2.319-7.448-2.855-1.356-0.273-2.723-0.438-4.113-0.448-1.083-0.011-2.166 0.033-3.237 0.131-2.789 0.273-5.545 1.050-8.083 2.242-2.177 1.028-4.2 2.363-5.994 3.959s-3.358 3.456-4.616 5.502c-1.389 2.275-2.428 4.758-2.997 7.361-0.459 2.078-0.678 4.222-0.569 6.355 0.098 2.067 0.416 4.134 1.039 6.114 0.394 1.258 0.864 2.483 1.455 3.675 0.58 1.17 1.258 2.297 2.012 3.358 1.509 2.111 3.347 3.981 5.447 5.523 2.144 1.586 4.561 2.811 7.098 3.62 2.647 0.842 5.458 1.236 8.236 1.137 2.713-0.087 5.403-0.612 7.941-1.586 2.439-0.941 4.725-2.286 6.727-3.97 1.006-0.853 1.903-1.816 2.745-2.833 0.853-1.028 1.619-2.111 2.253-3.281 0.547-1.006 1.006-2.056 1.4-3.117 0.197-0.525 0.383-1.050 0.536-1.597 0.164-0.58 0.284-1.181 0.394-1.772 0.164-0.93 0.23-1.892 0.142-2.833-0.077 0.416-0.142 0.82-0.241 1.225-0.12 0.47-0.273 0.93-0.448 1.378-0.35 0.952-0.788 1.87-1.203 2.789-0.536 1.17-1.159 2.286-1.838 3.369-0.35 0.558-0.711 1.105-1.105 1.63s-0.842 1.028-1.291 1.52-1.87 1.881-2.953 2.669c-1.105 0.809-2.275 1.52-3.511 2.111-2.472 1.203-5.173 1.925-7.908 2.166-2.8 0.241-5.655-0.033-8.345-0.831-2.559-0.755-4.987-1.98-7.12-3.588-2.067-1.564-3.861-3.489-5.272-5.666-1.477-2.22-2.494-4.725-3.052-7.339-0.142-0.678-0.252-1.378-0.328-2.067-0.066-0.591-0.12-1.192-0.142-1.794-0.033-1.236 0.044-2.516 0.23-3.741 0.405-2.691 1.28-5.283 2.636-7.645 1.203-2.111 2.767-4.014 4.605-5.622 1.838-1.619 3.938-2.92 6.213-3.839 1.313-0.536 2.691-0.93 4.091-1.192 0.711-0.131 1.422-0.241 2.133-0.295 0.35-0.033 0.689-0.033 1.039-0.066 0.142 0 0.284 0.011 0.427 0.011 2.373-0.044 4.758 0.263 7.022 0.973 2.439 0.766 4.736 2.002 6.727 3.609 2.089 1.684 3.828 3.762 5.141 6.103 1.116 1.991 1.914 4.134 2.395 6.366 0.109 0.514 0.197 1.028 0.284 1.542 0.077 0.47 0.339 0.908 0.744 1.17 0.853 0.569 2.045 0.186 2.461-0.733 0.142-0.317 0.186-0.656 0.131-0.973z"></path>
</svg>
