<?xml version="1.0" encoding="utf-8"?>
<!-- Generated by IcoMoon.io -->
<!DOCTYPE svg PUBLIC "-//W3C//DTD SVG 1.1//EN" "http://www.w3.org/Graphics/SVG/1.1/DTD/svg11.dtd">
<svg version="1.1" xmlns="http://www.w3.org/2000/svg" xmlns:xlink="http://www.w3.org/1999/xlink" width="135" height="56" viewBox="0 0 135 56">
<path fill="#444444" d="M37.987 17.594c0 0 1.241-2.338 0.078-4.244-1.164-1.917-3.147-1.906-3.147-1.906s-25.621 0.011-25.621 0.011c0 0-2.083-0.078-3.424 1.795s-0.055 4.333-0.055 4.333c0 0 16.046 27.261 16.046 27.261s16.124-27.25 16.124-27.25z"></path>
<path fill="#444444" d="M54.288 11.399c4.41 0 8.245 1.574 11.492 4.732 3.247 3.147 4.876 7.070 4.876 11.747 0 4.665-1.551 8.655-4.654 11.935-3.103 3.291-6.915 4.942-11.447 4.942s-8.378-1.629-11.558-4.876c-3.18-3.236-4.765-7.103-4.765-11.592 0-2.438 0.454-4.732 1.341-6.871 0.898-2.139 2.094-3.934 3.579-5.375 1.496-1.452 3.203-2.582 5.142-3.413 1.939-0.82 3.934-1.23 5.995-1.23zM46.143 28.078c0 2.615 0.864 4.754 2.582 6.383 1.707 1.64 3.624 2.46 5.74 2.46s4.023-0.798 5.729-2.394c1.695-1.585 2.549-3.724 2.549-6.405 0-2.693-0.864-4.843-2.571-6.461-1.718-1.629-3.635-2.438-5.751-2.438s-4.023 0.82-5.729 2.46c-1.695 1.629-2.549 3.768-2.549 6.394z"></path>
<path fill="#444444" d="M71.021 38.661c0 0-1.252 2.338-0.089 4.244 1.164 1.917 3.147 1.906 3.147 1.906s25.621 0 25.621 0c0 0 2.083 0.066 3.424-1.806s0.055-4.333 0.055-4.333c0 0-16.046-27.261-16.046-27.261s-16.113 27.25-16.113 27.25z"></path>
<path fill="#444444" d="M100.754 11.411c0 0 25.544 0 25.544 0 0.975 0 1.695 0.111 2.161 0.344 0.454 0.222 0.765 0.576 0.92 1.064s0.233 1.119 0.233 1.906c0 0.787-0.078 1.418-0.233 1.895-0.155 0.465-0.421 0.787-0.787 0.975-0.554 0.266-1.33 0.41-2.338 0.41 0 0-8.777 0-8.777 0s0 22.862 0 22.862c0 0.698-0.022 1.208-0.078 1.54-0.044 0.332-0.177 0.72-0.41 1.164-0.222 0.432-0.632 0.754-1.219 0.931-0.576 0.177-1.341 0.277-2.294 0.277s-1.707-0.1-2.272-0.277c-0.565-0.177-0.964-0.499-1.197-0.931-0.233-0.443-0.366-0.831-0.41-1.186-0.044-0.344-0.078-0.864-0.078-1.563 0 0 0-22.817 0-22.817s-8.821 0-8.821 0c-0.975 0-1.695-0.122-2.161-0.344-0.454-0.233-0.765-0.587-0.909-1.064-0.155-0.488-0.233-1.13-0.233-1.917s0.078-1.418 0.233-1.884c0.144-0.476 0.41-0.798 0.776-0.975 0.554-0.277 1.33-0.41 2.349-0.41z"></path>
</svg>
