<?xml version="1.0" encoding="utf-8"?>
<!-- Generated by IcoMoon.io -->
<!DOCTYPE svg PUBLIC "-//W3C//DTD SVG 1.1//EN" "http://www.w3.org/Graphics/SVG/1.1/DTD/svg11.dtd">
<svg version="1.1" xmlns="http://www.w3.org/2000/svg" xmlns:xlink="http://www.w3.org/1999/xlink" width="56" height="56" viewBox="0 0 56 56">
<path fill="#444444" d="M48.473 23.941h-40.947c-2.144 0-3.882 1.814-3.882 4.059s1.738 4.059 3.882 4.059h40.947c2.144 0 3.882-1.814 3.882-4.059s-1.738-4.059-3.882-4.059z"></path>
<path fill="#444444" d="M48.473 7.704h-40.947c-2.144 0-3.882 1.814-3.882 4.059s1.738 4.059 3.882 4.059h40.947c2.144 0 3.882-1.814 3.882-4.059s-1.738-4.059-3.882-4.059z"></path>
<path fill="#444444" d="M48.473 40.177h-40.947c-2.144 0-3.882 1.814-3.882 4.059s1.738 4.059 3.882 4.059h40.947c2.144 0 3.882-1.814 3.882-4.059s-1.738-4.059-3.882-4.059z"></path>
</svg>
