<?xml version="1.0" encoding="utf-8"?>
<!-- Generated by IcoMoon.io -->
<!DOCTYPE svg PUBLIC "-//W3C//DTD SVG 1.1//EN" "http://www.w3.org/Graphics/SVG/1.1/DTD/svg11.dtd">
<svg version="1.1" xmlns="http://www.w3.org/2000/svg" xmlns:xlink="http://www.w3.org/1999/xlink" width="40" height="56" viewBox="0 0 40 56">
<path fill="#444444" d="M39.938 5.906v2.281q0 0.906-0.578 1.906t-1.328 1q-1.562 0-1.687 0.031-0.812 0.188-1 0.969-0.094 0.344-0.094 2v36q0 0.781-0.563 1.344t-1.344 0.563h-3.375q-0.781 0-1.344-0.563t-0.563-1.344v-38.063h-4.469v38.063q0 0.781-0.547 1.344t-1.359 0.563h-3.375q-0.812 0-1.359-0.563t-0.547-1.344v-15.5q-4.594-0.375-7.656-1.844-3.938-1.813-6-5.594-2-3.656-2-8.094 0-5.187 2.75-8.938 2.75-3.688 6.531-4.969 3.469-1.156 13.031-1.156h14.969q0.781 0 1.344 0.563t0.563 1.344z"></path>
</svg>
