<?xml version="1.0" encoding="utf-8"?>
<!-- Generated by IcoMoon.io -->
<!DOCTYPE svg PUBLIC "-//W3C//DTD SVG 1.1//EN" "http://www.w3.org/Graphics/SVG/1.1/DTD/svg11.dtd">
<svg version="1.1" xmlns="http://www.w3.org/2000/svg" xmlns:xlink="http://www.w3.org/1999/xlink" width="56" height="56" viewBox="0 0 56 56">
<path fill="#444444" d="M28 28c-1.936 0-3.5-1.564-3.5-3.5v-17.5c0-1.936 1.564-3.5 3.5-3.5s3.5 1.564 3.5 3.5v17.5c0 1.936-1.564 3.5-3.5 3.5z"></path>
<path fill="#444444" d="M41.453 7.525v0c-0.547-0.328-1.181-0.525-1.859-0.525-1.936 0-3.5 1.564-3.5 3.5 0 0.678 0.197 1.313 0.525 1.848 0.219 0.35 0.503 0.667 0.831 0.919 0.131 0.098 0.262 0.186 0.405 0.273 0.886 0.612 1.728 1.302 2.516 2.089 3.314 3.303 5.13 7.7 5.13 12.37s-1.816 9.067-5.13 12.37c-3.303 3.314-7.7 5.13-12.37 5.13s-9.067-1.816-12.37-5.13c-3.314-3.303-5.13-7.7-5.13-12.37s1.816-9.067 5.13-12.37c0.777-0.777 1.619-1.477 2.505-2.078 0.153-0.088 0.284-0.175 0.427-0.284 0.328-0.252 0.602-0.558 0.82-0.908 0.339-0.536 0.525-1.17 0.525-1.848 0-1.936-1.564-3.5-3.5-3.5-0.678 0-1.313 0.197-1.848 0.525l-0.011-0.011c-6.65 4.375-11.047 11.911-11.047 20.475 0 13.53 10.97 24.5 24.5 24.5s24.5-10.97 24.5-24.5c0-8.564-4.397-16.1-11.047-20.475z"></path>
</svg>
