<?xml version="1.0" encoding="utf-8"?>
<!-- Generated by IcoMoon.io -->
<!DOCTYPE svg PUBLIC "-//W3C//DTD SVG 1.1//EN" "http://www.w3.org/Graphics/SVG/1.1/DTD/svg11.dtd">
<svg version="1.1" xmlns="http://www.w3.org/2000/svg" xmlns:xlink="http://www.w3.org/1999/xlink" width="56" height="56" viewBox="0 0 56 56">
<path fill="#444444" d="M26.286 31.857v11.143q0 2.321-1.625 3.946t-3.946 1.625h-11.143q-2.321 0-3.946-1.625t-1.625-3.946v-20.429q0-3.018 1.175-5.76t3.177-4.744 4.744-3.177 5.76-1.175h1.857q0.754 0 1.306 0.551t0.551 1.306v3.714q0 0.754-0.551 1.306t-1.306 0.551h-1.857q-3.076 0-5.252 2.176t-2.176 5.252v0.929q0 1.161 0.812 1.973t1.973 0.812h6.5q2.321 0 3.946 1.625t1.625 3.946zM52.286 31.857v11.143q0 2.321-1.625 3.946t-3.946 1.625h-11.143q-2.321 0-3.946-1.625t-1.625-3.946v-20.429q0-3.018 1.175-5.76t3.177-4.744 4.744-3.177 5.76-1.175h1.857q0.754 0 1.306 0.551t0.551 1.306v3.714q0 0.754-0.551 1.306t-1.306 0.551h-1.857q-3.076 0-5.252 2.176t-2.176 5.252v0.929q0 1.161 0.812 1.973t1.973 0.812h6.5q2.321 0 3.946 1.625t1.625 3.946z"></path>
</svg>
