<?xml version="1.0" encoding="utf-8"?>
<!-- Generated by IcoMoon.io -->
<!DOCTYPE svg PUBLIC "-//W3C//DTD SVG 1.1//EN" "http://www.w3.org/Graphics/SVG/1.1/DTD/svg11.dtd">
<svg version="1.1" xmlns="http://www.w3.org/2000/svg" xmlns:xlink="http://www.w3.org/1999/xlink" width="56" height="56" viewBox="0 0 56 56">
<path fill="#444444" d="M42.129 15.354c-0.391-0.39-0.865-0.586-1.424-0.586 0 0-25.446 0-25.446 0-0.557 0-1.033 0.196-1.422 0.586-0.391 0.391-0.586 0.865-0.586 1.422 0 0 0 4.019 0 4.019 0 0.557 0.195 1.033 0.586 1.422 0.39 0.391 0.865 0.586 1.422 0.586 0 0 25.446 0 25.446 0 0.559 0 1.032-0.195 1.424-0.586 0.39-0.39 0.585-0.865 0.585-1.422 0 0 0-4.019 0-4.019 0-0.557-0.195-1.031-0.585-1.422zM17.125 51.125c0.584-0.584 0.875-1.291 0.875-2.125 0 0 0-6 0-6 0-0.834-0.291-1.541-0.875-2.125s-1.291-0.875-2.125-0.875c0 0-6 0-6 0-0.834 0-1.541 0.291-2.125 0.875s-0.875 1.291-0.875 2.125c0 0 0 6 0 6 0 0.834 0.291 1.541 0.875 2.125s1.291 0.875 2.125 0.875c0 0 6 0 6 0 0.834 0 1.541-0.291 2.125-0.875zM33.125 51.125c0.584-0.584 0.875-1.291 0.875-2.125 0 0 0-6 0-6 0-0.834-0.291-1.541-0.875-2.125s-1.291-0.875-2.125-0.875c0 0-6 0-6 0-0.834 0-1.541 0.291-2.125 0.875s-0.875 1.291-0.875 2.125c0 0 0 6 0 6 0 0.834 0.291 1.541 0.875 2.125s1.291 0.875 2.125 0.875c0 0 6 0 6 0 0.834 0 1.541-0.291 2.125-0.875zM49.125 51.125c0.584-0.584 0.875-1.291 0.875-2.125 0 0 0-6 0-6 0-0.834-0.291-1.541-0.875-2.125s-1.291-0.875-2.125-0.875c0 0-6 0-6 0-0.834 0-1.541 0.291-2.125 0.875s-0.875 1.291-0.875 2.125c0 0 0 6 0 6 0 0.834 0.291 1.541 0.875 2.125s1.291 0.875 2.125 0.875c0 0 6 0 6 0 0.834 0 1.541-0.291 2.125-0.875z"></path>
</svg>
