<?xml version="1.0" encoding="utf-8"?>
<!-- Generated by IcoMoon.io -->
<!DOCTYPE svg PUBLIC "-//W3C//DTD SVG 1.1//EN" "http://www.w3.org/Graphics/SVG/1.1/DTD/svg11.dtd">
<svg version="1.1" xmlns="http://www.w3.org/2000/svg" xmlns:xlink="http://www.w3.org/1999/xlink" width="56" height="56" viewBox="0 0 56 56">
<path fill="#444444" d="M10.736 38.161c-3.907 0-7.091 3.184-7.091 7.078 0 3.907 3.184 7.053 7.091 7.053 3.92 0 7.091-3.159 7.091-7.053s-3.171-7.078-7.091-7.078z"></path>
<path fill="#444444" d="M3.645 19.882v10.135c6.089 0 11.937 1.801 16.237 6.101s6.089 10.135 6.089 16.237h10.148c0-17.746-14.714-32.473-32.473-32.473z"></path>
<path fill="#444444" d="M3.645 3.645v10.135c21.691 0 38.549 16.871 38.549 38.575h10.161c0-26.854-21.818-48.71-48.71-48.71z"></path>
</svg>
