<?xml version="1.0" encoding="utf-8"?>
<!-- Generated by IcoMoon.io -->
<!DOCTYPE svg PUBLIC "-//W3C//DTD SVG 1.1//EN" "http://www.w3.org/Graphics/SVG/1.1/DTD/svg11.dtd">
<svg version="1.1" xmlns="http://www.w3.org/2000/svg" xmlns:xlink="http://www.w3.org/1999/xlink" width="56" height="56" viewBox="0 0 56 56">
<path fill="#444444" d="M32.488 40.898c-0.306-0.212-0.848-0.53-2.061-0.53h-13.675c-4.087 0-7.597-3.074-7.597-6.973v-11.873h-0.212c-3.098 0-5.442 2.415-5.442 5.359v15.183c0 2.945 2.521 4.782 5.618 4.782h1.92v5.654l6.255-5.3c0.224-0.165 0.624-0.353 1.555-0.353h10.577c2.709 0 5.583-1.343 6.113-3.769l-3.051-2.179z"></path>
<path fill="#444444" d="M45.079 3.5h-25.595c-4.087 0-6.561 3.157-6.561 7.044v19.812c0 3.899 3.298 7.067 7.385 7.067h11.908c1.225 0 1.767 0.271 2.061 0.495l8.799 7.044v-7.538h2.002c4.099 0 7.421-3.168 7.421-7.056v-19.824c0-3.887-3.322-7.044-7.421-7.044z"></path>
</svg>
