<?xml version="1.0" encoding="utf-8"?>
<!-- Generated by IcoMoon.io -->
<!DOCTYPE svg PUBLIC "-//W3C//DTD SVG 1.1//EN" "http://www.w3.org/Graphics/SVG/1.1/DTD/svg11.dtd">
<svg version="1.1" xmlns="http://www.w3.org/2000/svg" xmlns:xlink="http://www.w3.org/1999/xlink" width="56" height="56" viewBox="0 0 56 56">
<path fill="#444444" d="M31.449 42.907v-5.12q0-0.377-0.256-0.633t-0.606-0.256h-5.173q-0.35 0-0.606 0.256t-0.256 0.633v5.12q0 0.377 0.256 0.633t0.606 0.256h5.173q0.35 0 0.606-0.256t0.256-0.633zM31.395 32.829l0.485-12.368q0-0.323-0.269-0.512-0.35-0.296-0.647-0.296h-5.928q-0.296 0-0.647 0.296-0.269 0.189-0.269 0.566l0.458 12.314q0 0.269 0.269 0.445t0.647 0.175h4.985q0.377 0 0.633-0.175t0.283-0.445zM31.018 7.662l20.694 37.939q0.943 1.698-0.054 3.395-0.458 0.781-1.253 1.239t-1.711 0.458h-41.388q-0.916 0-1.711-0.458t-1.253-1.239q-0.997-1.698-0.054-3.395l20.694-37.939q0.458-0.835 1.266-1.32t1.751-0.485 1.751 0.485 1.266 1.32z"></path>
</svg>
