<?xml version="1.0" encoding="utf-8"?>
<!-- Generated by IcoMoon.io -->
<!DOCTYPE svg PUBLIC "-//W3C//DTD SVG 1.1//EN" "http://www.w3.org/Graphics/SVG/1.1/DTD/svg11.dtd">
<svg version="1.1" xmlns="http://www.w3.org/2000/svg" xmlns:xlink="http://www.w3.org/1999/xlink" width="56" height="56" viewBox="0 0 56 56">
<path fill="#444444" d="M51.281 28q0.377 0 0.62 0.243t0.243 0.62v1.724q0 0.377-0.243 0.62t-0.62 0.243h-46.561q-0.377 0-0.62-0.243t-0.243-0.62v-1.724q0-0.377 0.243-0.62t0.62-0.243h46.561zM16.872 26.276q-0.754-0.943-1.374-2.156-1.293-2.614-1.293-5.066 0-4.877 3.611-8.326 3.584-3.422 10.589-3.422 1.347 0 4.5 0.512 1.778 0.323 4.769 1.293 0.269 1.024 0.566 3.18 0.377 3.314 0.377 4.931 0 0.485-0.135 1.213l-0.323 0.081-2.263-0.162-0.377-0.054q-1.347-4.015-2.775-5.524-2.371-2.452-5.659-2.452-3.072 0-4.904 1.59-1.805 1.563-1.805 3.934 0 1.967 1.778 3.772t7.518 3.476q1.859 0.539 4.662 1.778 1.563 0.754 2.56 1.401h-20.020zM30.533 33.173h11.074q0.189 1.051 0.189 2.479 0 2.991-1.105 5.712-0.62 1.482-1.913 2.802-0.997 0.943-2.937 2.183-2.156 1.293-4.123 1.778-2.156 0.566-5.47 0.566-3.072 0-5.254-0.62l-3.772-1.078q-1.536-0.431-1.94-0.754-0.216-0.216-0.216-0.593v-0.35q0-2.91-0.054-4.203-0.027-0.808 0-1.832l0.054-0.997v-1.186l2.748-0.054q0.404 0.916 0.808 1.913t0.606 1.509 0.337 0.728q0.943 1.536 2.156 2.533 1.159 0.97 2.829 1.536 1.59 0.593 3.557 0.593 1.724 0 3.745-0.728 2.075-0.701 3.287-2.317 1.266-1.644 1.266-3.476 0-2.263-2.183-4.23-0.916-0.781-3.692-1.913z"></path>
</svg>
