<?xml version="1.0" encoding="utf-8"?>
<!-- Generated by IcoMoon.io -->
<!DOCTYPE svg PUBLIC "-//W3C//DTD SVG 1.1//EN" "http://www.w3.org/Graphics/SVG/1.1/DTD/svg11.dtd">
<svg version="1.1" xmlns="http://www.w3.org/2000/svg" xmlns:xlink="http://www.w3.org/1999/xlink" width="56" height="56" viewBox="0 0 56 56">
<path fill="#444444" d="M32.031 42.781v5.219h-7.75l-4.969-7.875-0.75-1.313q-0.25-0.281-0.344-0.656h-0.094l-0.281 0.656q-0.312 0.625-0.781 1.375l-4.844 7.812h-8.063v-5.219h4l6.156-9.094-5.781-8.5h-4.281v-5.25h8.625l4.344 7.125q0.063 0.125 0.719 1.312 0.25 0.281 0.344 0.656h0.094q0.094-0.281 0.344-0.656l0.781-1.313 4.375-7.125h8.031v5.25h-3.906l-5.75 8.344 6.375 9.25h3.406zM51.937 21.563v6.437h-16.062l-0.094-0.844q-0.125-0.875-0.125-1.438 0-2 0.812-3.656t2.031-2.703 2.625-2.031 2.625-1.703 2.031-1.687 0.812-2q0-1.187-0.922-1.953t-2.203-0.766q-1.594 0-3.031 1.219-0.438 0.344-1.125 1.187l-3.281-2.875q0.812-1.156 1.969-2.062 2.594-2.031 5.875-2.031 3.437 0 5.562 1.859t2.125 4.953q0 1.75-0.766 3.219t-1.938 2.391-2.547 1.828-2.562 1.578-2.047 1.609-0.953 1.969h7.25v-2.5h3.938z"></path>
</svg>
