<?xml version="1.0" encoding="utf-8"?>
<!-- Generated by IcoMoon.io -->
<!DOCTYPE svg PUBLIC "-//W3C//DTD SVG 1.1//EN" "http://www.w3.org/Graphics/SVG/1.1/DTD/svg11.dtd">
<svg version="1.1" xmlns="http://www.w3.org/2000/svg" xmlns:xlink="http://www.w3.org/1999/xlink" width="56" height="56" viewBox="0 0 56 56">
<path fill="#444444" d="M18.857 43.929v-5.571q0-0.406-0.261-0.667t-0.667-0.261h-9.286q-0.406 0-0.667 0.261t-0.261 0.667v5.571q0 0.406 0.261 0.667t0.667 0.261h9.286q0.406 0 0.667-0.261t0.261-0.667zM18.857 32.786v-5.571q0-0.406-0.261-0.667t-0.667-0.261h-9.286q-0.406 0-0.667 0.261t-0.261 0.667v5.571q0 0.406 0.261 0.667t0.667 0.261h9.286q0.406 0 0.667-0.261t0.261-0.667zM33.715 43.929v-5.571q0-0.406-0.261-0.667t-0.667-0.261h-9.286q-0.406 0-0.667 0.261t-0.261 0.667v5.571q0 0.406 0.261 0.667t0.667 0.261h9.286q0.406 0 0.667-0.261t0.261-0.667zM18.857 21.643v-5.571q0-0.406-0.261-0.667t-0.667-0.261h-9.286q-0.406 0-0.667 0.261t-0.261 0.667v5.571q0 0.406 0.261 0.667t0.667 0.261h9.286q0.406 0 0.667-0.261t0.261-0.667zM33.715 32.786v-5.571q0-0.406-0.261-0.667t-0.667-0.261h-9.286q-0.406 0-0.667 0.261t-0.261 0.667v5.571q0 0.406 0.261 0.667t0.667 0.261h9.286q0.406 0 0.667-0.261t0.261-0.667zM48.572 43.929v-5.571q0-0.406-0.261-0.667t-0.667-0.261h-9.286q-0.406 0-0.667 0.261t-0.261 0.667v5.571q0 0.406 0.261 0.667t0.667 0.261h9.286q0.406 0 0.667-0.261t0.261-0.667zM33.715 21.643v-5.571q0-0.406-0.261-0.667t-0.667-0.261h-9.286q-0.406 0-0.667 0.261t-0.261 0.667v5.571q0 0.406 0.261 0.667t0.667 0.261h9.286q0.406 0 0.667-0.261t0.261-0.667zM48.572 32.786v-5.571q0-0.406-0.261-0.667t-0.667-0.261h-9.286q-0.406 0-0.667 0.261t-0.261 0.667v5.571q0 0.406 0.261 0.667t0.667 0.261h9.286q0.406 0 0.667-0.261t0.261-0.667zM48.572 21.643v-5.571q0-0.406-0.261-0.667t-0.667-0.261h-9.286q-0.406 0-0.667 0.261t-0.261 0.667v5.571q0 0.406 0.261 0.667t0.667 0.261h9.286q0.406 0 0.667-0.261t0.261-0.667zM52.286 12.357v31.571q0 1.915-1.364 3.279t-3.279 1.364h-39q-1.915 0-3.279-1.364t-1.364-3.279v-31.571q0-1.915 1.364-3.279t3.279-1.364h39q1.915 0 3.279 1.364t1.364 3.279z"></path>
</svg>
