<?xml version="1.0" encoding="utf-8"?>
<!-- Generated by IcoMoon.io -->
<!DOCTYPE svg PUBLIC "-//W3C//DTD SVG 1.1//EN" "http://www.w3.org/Graphics/SVG/1.1/DTD/svg11.dtd">
<svg version="1.1" xmlns="http://www.w3.org/2000/svg" xmlns:xlink="http://www.w3.org/1999/xlink" width="56" height="56" viewBox="0 0 56 56">
<path fill="#444444" d="M52.355 52.355c0 0 0-3.349-0.279-5.099-0.228-1.383-2.144-3.209-10.287-6.203-8.017-2.943-7.522-1.51-7.522-6.926 0-3.514 1.789-1.471 2.93-8.144 0.444-2.626 0.799-0.875 1.763-5.087 0.507-2.207-0.342-2.372-0.241-3.425s0.203-1.991 0.393-4.148c0.228-2.664-2.245-9.679-11.112-9.679s-11.34 7.015-11.099 9.691c0.19 2.144 0.292 3.095 0.393 4.148s-0.748 1.218-0.241 3.425c0.964 4.199 1.319 2.448 1.763 5.087 1.142 6.672 2.93 4.63 2.93 8.144 0 5.429 0.495 3.996-7.522 6.926-8.144 2.981-10.072 4.82-10.287 6.203-0.292 1.738-0.292 5.087-0.292 5.087h48.71z"></path>
</svg>
