<?xml version="1.0" encoding="utf-8"?>
<!-- Generated by IcoMoon.io -->
<!DOCTYPE svg PUBLIC "-//W3C//DTD SVG 1.1//EN" "http://www.w3.org/Graphics/SVG/1.1/DTD/svg11.dtd">
<svg version="1.1" xmlns="http://www.w3.org/2000/svg" xmlns:xlink="http://www.w3.org/1999/xlink" width="56" height="56" viewBox="0 0 56 56">
<path fill="#444444" d="M51.695 8.161l-3.856-3.856c-0.888-0.875-2.309-0.875-3.184 0l-4.034 4.034 7.040 7.040 4.034-4.021c0.875-0.901 0.875-2.321 0-3.197z"></path>
<path fill="#444444" d="M39.429 9.543l-21.818 22.516-1.789 8.118 8.118-1.789 22.402-21.945z"></path>
<path fill="#444444" d="M44.237 28v19.027c0 0.647-0.495 1.281-1.167 1.281s-34.122-0.013-34.122-0.013c-0.71 0-1.243-0.685-1.243-1.268s0-33.996 0-33.996c0-0.634 0.596-1.268 1.345-1.268h18.951l4.059-4.059h-25.446c-1.649 0-2.968 1.307-2.968 2.956v38.727c0 1.636 1.332 2.968 2.968 2.968h38.727c1.636 0 2.956-1.332 2.956-2.968v-25.446l-4.059 4.059z"></path>
</svg>
